# xmcd CD database file
# Copyright (C) 1996 Ti Kan
#
# Track frame offsets:
#  150
#  14887
#  27497
#  50042
#  61895
#  76547
#  88807
#  104160
#  120682
#  135660
#  148910
#  162997
#  176140
#  189365
#  202195
#  217177
#  230785
#  242452
#
# Disc length: 3422 seconds
#
# Revision: 1
# Processed by: cddbd v1.4b41PL1 Copyright (c) Steve Scherf et al.
# Submitted via: CDWizzard Release:4.14
#
DISCID=170d5c12
DTITLE=The Original Salty Dogs Jazz Band - Clancy Hayes:  Oh! By Jingo
DYEAR=1900
DGENRE=
TTITLE0=Oh! By Jingo!
TTITLE1=Rose of Washington Square
TTITLE2=Oriental Strut
TTITLE3=I'm Comin' Virginia
TTITLE4=Wise Guy
TTITLE5=Beale Street Blues
TTITLE6=Cakewalking Babies
TTITLE7=Tin Roof Blues
TTITLE8=King Chanticleer
TTITLE9=Michigan Water Blues
TTITLE10=New Orleans Stomp
TTITLE11=My Little Bimbo
TTITLE12=Tin Roof Blues
TTITLE13=Rose of Washington Square
TTITLE14=King Chanticleer
TTITLE15=Michigan water Blues
TTITLE16=I'm Comin' Virginia
TTITLE17=New Orleans Stomp
EXTD=
EXTT0=The Original Salty Dogs Jazz Band
EXTT1=The Original Salty Dogs Jazz Band
EXTT2=The Original Salty Dogs Jazz Band
EXTT3=The Original Salty Dogs Jazz Band
EXTT4=The Original Salty Dogs Jazz Band
EXTT5=The Original Salty Dogs Jazz Band
EXTT6=The Original Salty Dogs Jazz Band
EXTT7=The Original Salty Dogs Jazz Band
EXTT8=The Original Salty Dogs Jazz Band
EXTT9=The Original Salty Dogs Jazz Band
EXTT10=The Original Salty Dogs Jazz Band
EXTT11=The Original Salty Dogs Jazz Band
EXTT12=The Original Salty Dogs Jazz Band
EXTT13=The Original Salty Dogs Jazz Band
EXTT14=The Original Salty Dogs Jazz Band
EXTT15=The Original Salty Dogs Jazz Band
EXTT16=The Original Salty Dogs Jazz Band
EXTT17=The Original Salty Dogs Jazz Band
PLAYORDER=
